<svg xmlns="http://www.w3.org/2000/svg" width="30" height="30" viewBox="0 0 30 30"><g transform="translate(-8 -8)"><path d="M35.581,10.9H25.419V8.484A.484.484,0,0,0,24.935,8H21.065a.484.484,0,0,0-.484.484V10.9H10.419A2.422,2.422,0,0,0,8,13.323V28.806a2.422,2.422,0,0,0,2.419,2.419h8.038l-.645,1.935h-.619a2.422,2.422,0,0,0-2.419,2.419v1.935a.484.484,0,0,0,.484.484H30.742a.484.484,0,0,0,.484-.484V35.581a2.422,2.422,0,0,0-2.419-2.419h-.619l-.645-1.935h8.038A2.422,2.422,0,0,0,38,28.806V13.323A2.422,2.422,0,0,0,35.581,10.9ZM21.548,15.258V8.968h2.9v6.29a.484.484,0,0,0,.484.484H25.7l-2.7,2.7-2.7-2.7h.767a.484.484,0,0,0,.484-.484ZM10.419,11.871H20.581v2.9H19.129a.484.484,0,0,0-.342.826l3.871,3.871a.484.484,0,0,0,.684,0L27.213,15.6a.484.484,0,0,0-.342-.826H25.419v-2.9H35.581a1.452,1.452,0,0,1,1.452,1.452V26.387H8.968V13.323A1.452,1.452,0,0,1,10.419,11.871Zm19.839,23.71v1.452H15.742V35.581a1.452,1.452,0,0,1,1.452-1.452H28.806A1.452,1.452,0,0,1,30.258,35.581Zm-3.091-2.419H18.833l.645-1.935h7.044Zm8.414-2.9H10.419a1.452,1.452,0,0,1-1.452-1.452V27.355H37.032v1.452A1.452,1.452,0,0,1,35.581,30.258Z"/><path d="M40.484,99.613h6.774a.484.484,0,0,0,.484-.484V88.484A.484.484,0,0,0,47.258,88H40.484a.484.484,0,0,0-.484.484V99.129A.484.484,0,0,0,40.484,99.613Zm.484-10.645h5.806v9.677H40.968Z" transform="translate(-30.065 -75.161)"/><path d="M88,128h2.9v.968H88Z" transform="translate(-75.161 -112.742)"/><path d="M72,160h3.871v.968H72Z" transform="translate(-60.129 -142.806)"/><path d="M120,192h.968v.968H120Z" transform="translate(-105.226 -172.871)"/><path d="M344.484,130.645h6.774a.484.484,0,0,0,.484-.484v-9.677a.484.484,0,0,0-.484-.484h-6.774a.484.484,0,0,0-.484.484v9.677A.484.484,0,0,0,344.484,130.645Zm.484-9.677h5.806v8.71h-5.806Z" transform="translate(-315.677 -105.226)"/><path d="M392,160h2.9v.968H392Z" transform="translate(-360.774 -142.806)"/><path d="M376,192h3.871v.968H376Z" transform="translate(-345.742 -172.871)"/><path d="M424,224h.968v.968H424Z" transform="translate(-390.839 -202.935)"/><path d="M248,344h.968v.968H248Z" transform="translate(-225.484 -315.677)"/><path d="M280,232h.968v.968H280Z" transform="translate(-255.548 -210.452)"/><path d="M248,232h.968v.968H248Z" transform="translate(-225.484 -210.452)"/><path d="M216,232h.968v.968H216Z" transform="translate(-195.419 -210.452)"/><path d="M216,264h4.839v.968H216Z" transform="translate(-195.419 -240.516)"/></g></svg>