<svg xmlns="http://www.w3.org/2000/svg" width="30" height="40.083" viewBox="0 0 30 40.083"><g transform="translate(-64.128)"><g transform="translate(64.128)"><path d="M92.288,0H68.474a1.843,1.843,0,0,0-1.84,1.842V2.51h-.667a1.843,1.843,0,0,0-1.84,1.842V38.241a1.843,1.843,0,0,0,1.84,1.842H82.736a2.449,2.449,0,0,0,1.744-.723l1.784-1.787h6.024a1.843,1.843,0,0,0,1.84-1.842V1.842A1.843,1.843,0,0,0,92.288,0ZM84.1,38.079V33.221a.668.668,0,0,1,.667-.668h4.851Zm8.187-1.68H87.437L90.9,32.932a2.456,2.456,0,0,0,.722-1.746V4.353a1.843,1.843,0,0,0-1.84-1.842h-18.8a.587.587,0,0,0,0,1.174h18.8a.668.668,0,0,1,.667.668V31.186a1.312,1.312,0,0,1-.016.193H84.768a1.843,1.843,0,0,0-1.84,1.842v5.673a1.307,1.307,0,0,1-.192.016H65.968a.668.668,0,0,1-.667-.668V4.353a.668.668,0,0,1,.667-.668h2.507a.587.587,0,0,0,0-1.174h-.667V1.842a.668.668,0,0,1,.667-.668H92.288a.668.668,0,0,1,.667.668V35.731h0A.668.668,0,0,1,92.288,36.4Z" transform="translate(-64.128)"/></g><g transform="translate(69.132 11.296)"><g transform="translate(0)"><path d="M145.2,153.627a2.546,2.546,0,0,1-1.916-1.993.587.587,0,0,0-.511-.473,4.459,4.459,0,0,1-3.855-3.578.587.587,0,1,0-1.154.217,5.647,5.647,0,0,0,4.47,4.466A3.724,3.724,0,0,0,144.4,154.6a7.573,7.573,0,1,1-5.944-9,.587.587,0,0,0,.225-1.153A8.745,8.745,0,1,0,137,161.78a8.74,8.74,0,0,0,8.647-7.5A.587.587,0,0,0,145.2,153.627Z" transform="translate(-128.257 -144.289)"/></g></g><g transform="translate(81.671 10.669)"><path d="M290.735,136.274a2.156,2.156,0,1,0,2.156,2.156A2.159,2.159,0,0,0,290.735,136.274Zm0,3.138a.982.982,0,1,1,.982-.982A.983.983,0,0,1,290.735,139.412Z" transform="translate(-288.579 -136.274)"/></g><g transform="translate(84.804 15.062)"><path d="M330.5,192.387a1.842,1.842,0,1,0,1.842,1.842A1.844,1.844,0,0,0,330.5,192.387Zm0,2.51a.668.668,0,1,1,.668-.668A.669.669,0,0,1,330.5,194.9Z" transform="translate(-328.66 -192.387)"/></g><g transform="translate(73.526 15.689)"><g transform="translate(0)"><path d="M186.213,200.4a1.842,1.842,0,1,0,1.842,1.842A1.844,1.844,0,0,0,186.213,200.4Zm0,2.51a.668.668,0,1,1,.668-.668A.669.669,0,0,1,186.213,202.914Z" transform="translate(-184.371 -200.404)"/></g></g><g transform="translate(78.539 21.337)"><path d="M250.341,272.549a1.842,1.842,0,1,0,1.842,1.842A1.844,1.844,0,0,0,250.341,272.549Zm0,2.51a.668.668,0,1,1,.668-.668A.669.669,0,0,1,250.341,275.059Z" transform="translate(-248.499 -272.549)"/></g><g transform="translate(72.901 21.337)"><path d="M177.569,272.548h-.628a.587.587,0,0,0,0,1.174h.628a.587.587,0,1,0,0-1.174Z" transform="translate(-176.354 -272.548)"/></g><g transform="translate(75.407 23.22)"><g transform="translate(0)"><path d="M210.048,297.4l-.628-.628a.587.587,0,1,0-.83.83l.628.628a.587.587,0,0,0,.83-.83Z" transform="translate(-208.418 -296.597)"/></g></g><g transform="translate(77.914 18.827)"><path d="M241.07,240.484a.587.587,0,0,0-.587.587v.628a.587.587,0,0,0,1.174,0v-.628A.587.587,0,0,0,241.07,240.484Z" transform="translate(-240.483 -240.484)"/></g></g></svg>