<svg xmlns="http://www.w3.org/2000/svg" width="30" height="28.191" viewBox="0 0 30 28.191"><g transform="translate(0 -16.967)"><path d="M215.118,111.931a.446.446,0,0,0,.672-.076l2.937-4.433a.441.441,0,1,0-.736-.488l-2.647,4-1.471-1.4a.441.441,0,0,0-.608.64Z" transform="translate(-200.628 -84.476)"/><path d="M121.292,34.186a.645.645,0,0,0,.269.059h0a.636.636,0,0,0,.272-.062c6.66-3.192,7.788-10.078,7.975-12.113a1.056,1.056,0,0,0-.646-1.076,3.854,3.854,0,0,1-2.352-3.237.868.868,0,0,0-.858-.79h-.005l-8.972.053a.861.861,0,0,0-.854.806,3.856,3.856,0,0,1-2.317,3.26,1.052,1.052,0,0,0-.63,1.082C113.387,24.2,114.6,31.073,121.292,34.186ZM114.15,21.9a4.734,4.734,0,0,0,2.846-4l8.946-.053a4.734,4.734,0,0,0,2.887,3.959.178.178,0,0,1,.11.18c-.176,1.907-1.226,8.336-7.38,11.349-6.189-2.94-7.314-9.356-7.512-11.261A.174.174,0,0,1,114.15,21.9Z" transform="translate(-106.498)"/><path d="M143.3,50.92a.465.465,0,0,0,.542.31.442.442,0,0,0,.31-.542c-.112-.414-.207-.834-.281-1.25a6.207,6.207,0,0,0,2.525-3.309l6.374-.037a6.207,6.207,0,0,0,2.564,3.279c-.069.417-.159.839-.267,1.254a.441.441,0,1,0,.855.221c.126-.488.229-.984.306-1.473a.675.675,0,0,0-.318-.685,5.326,5.326,0,0,1-2.342-3,.683.683,0,0,0-.649-.479h0l-6.673.039a.683.683,0,0,0-.647.487,5.327,5.327,0,0,1-2.307,3.03.675.675,0,0,0-.31.688C143.06,49.94,143.169,50.434,143.3,50.92Z" transform="translate(-134.603 -26.576)"/><path d="M170.49,163.747a.441.441,0,0,0-.576.24,11.117,11.117,0,0,1-4.8,5.588,11.121,11.121,0,0,1-4.869-5.541.441.441,0,0,0-.812.346,11.973,11.973,0,0,0,5.359,6.025.676.676,0,0,0,.655,0,11.969,11.969,0,0,0,5.284-6.078A.441.441,0,0,0,170.49,163.747Z" transform="translate(-150.063 -138.094)"/><path d="M23.105,399.991a1.561,1.561,0,1,0,1.562,1.561A1.563,1.563,0,0,0,23.105,399.991Zm0,2.24a.679.679,0,1,1,.679-.679A.68.68,0,0,1,23.105,402.231Z" transform="translate(-20.274 -360.441)"/><path d="M29.685,257.248a1.826,1.826,0,0,0-2.528-.491l-5.745,3.861-1.226-.069-.031-.315a2.673,2.673,0,0,0-2.286-2.393l-.023,0-6.19-.545a10.148,10.148,0,0,1-2.722-1.287,6.814,6.814,0,0,0-3.132-.9v-1.155A1.05,1.05,0,0,0,4.755,252.9H1.046A1.05,1.05,0,0,0,0,253.947v11.372a1.05,1.05,0,0,0,1.046,1.051H4.755A1.05,1.05,0,0,0,5.8,265.318v-.313l5.411,2.058a3.014,3.014,0,0,0,1.259.093l8.991-1.3h.007a4.413,4.413,0,0,0,2.1-.943l.016-.014,5.807-5.245A1.844,1.844,0,0,0,29.685,257.248Zm-.883,1.745-5.8,5.24a3.535,3.535,0,0,1-1.667.748l-8.985,1.3h-.012a1.966,1.966,0,0,1-.832-.053l-5.7-2.169v-5.04a.439.439,0,1,0-.879,0v6.3a.168.168,0,0,1-.167.168H1.046a.168.168,0,0,1-.167-.168V253.947a.168.168,0,0,1,.167-.168H4.755a.168.168,0,0,1,.167.168v3.081a.439.439,0,1,0,.879,0v-1.042a5.934,5.934,0,0,1,2.695.787,9.235,9.235,0,0,0,3.046,1.4l.023,0,6.191.545a1.8,1.8,0,0,1,1.524,1.6l.023.235-8.289.514H11a1,1,0,0,1-.684-.359.438.438,0,0,0-.619-.056.442.442,0,0,0-.056.622,1.9,1.9,0,0,0,1.28.673c.271.029,8.867-.537,8.867-.537l1.723.1a.436.436,0,0,0,.269-.074l5.868-3.944a.947.947,0,0,1,1.312.254A.958.958,0,0,1,28.8,258.993Z" transform="translate(0 -222.018)"/></g></svg>