<svg xmlns="http://www.w3.org/2000/svg" width="30" height="24.667" viewBox="0 0 30 24.667"><g transform="translate(0 -46.002)"><path d="M28.192,49.064h-14c-.491-1.432-.743-3.041-2.534-3.062h-6.8a1.812,1.812,0,0,0-1.808,1.812v3.6H1.808A1.812,1.812,0,0,0,0,53.226V68.856a1.812,1.812,0,0,0,1.808,1.812H28.192A1.812,1.812,0,0,0,30,68.857V50.877a1.812,1.812,0,0,0-1.808-1.812ZM1.808,69.494a.638.638,0,0,1-.636-.638V53.226a.638.638,0,0,1,.636-.638H25.145a.638.638,0,0,1,.636.638V68.856a1.806,1.806,0,0,0,.116.638H1.808Zm27.02-.638a.638.638,0,0,1-.636.638h-.6a.638.638,0,0,1-.636-.638V53.226a1.812,1.812,0,0,0-1.808-1.812H4.219v-3.6a.638.638,0,0,1,.636-.638h6.8c.287,0,.7.085.943.824l.614,1.837a.586.586,0,0,0,.556.4H28.192a.638.638,0,0,1,.636.638Z" transform="translate(0)"/><path d="M117.048,182.072A7.056,7.056,0,0,0,110,189.12c.354,9.337,13.742,9.334,14.1,0A7.056,7.056,0,0,0,117.048,182.072Zm0,12.921a5.88,5.88,0,0,1-5.873-5.873c.3-7.781,11.452-7.779,11.746,0A5.88,5.88,0,0,1,117.048,194.993Z" transform="translate(-103.568 -128.079)"/><path d="M194.526,262.244a.587.587,0,0,0-.831,0l-1.347,1.347L191,262.244a.587.587,0,1,0-.831.831l1.347,1.347-1.347,1.347a.587.587,0,0,0,.831.831l1.347-1.347L193.7,266.6a.587.587,0,0,0,.831-.831l-1.347-1.347,1.347-1.347A.587.587,0,0,0,194.526,262.244Z" transform="translate(-178.871 -203.38)"/></g></svg>