<svg xmlns="http://www.w3.org/2000/svg" width="30" height="30" viewBox="0 0 30 30"><g transform="translate(26 6)"><path d="M445.734,102.4a2,2,0,1,0,2,2A2,2,0,0,0,445.734,102.4Zm0,3a1,1,0,1,1,1-1A1,1,0,0,1,445.734,105.4Z" transform="translate(-443.734 -102.4)"/></g><g transform="translate(0 22.5)"><path d="M2,384a2,2,0,1,0,2,2A2,2,0,0,0,2,384Zm0,3a1,1,0,1,1,1-1A1,1,0,0,1,2,387Z" transform="translate(0 -384)"/></g><g transform="translate(22 4.5)"><path d="M380.493,78.924l-4.313-2.082a.5.5,0,1,0-.435.9l4.313,2.082a.5.5,0,0,0,.435-.9Z" transform="translate(-375.463 -76.792)"/></g><g transform="translate(20.5 26)"><path d="M351.867,443.733a2,2,0,1,0,2,2A2,2,0,0,0,351.867,443.733Zm0,3a1,1,0,1,1,1-1A1,1,0,0,1,351.867,446.733Z" transform="translate(-349.867 -443.733)"/></g><g transform="translate(16.5 24.499)"><path d="M286.626,420.257l-4.313-2.082a.5.5,0,1,0-.435.9l4.313,2.082a.5.5,0,1,0,.435-.9Z" transform="translate(-281.596 -418.124)"/></g><g transform="translate(13 13.5)"><path d="M223.867,230.4a2,2,0,1,0,2,2A2,2,0,0,0,223.867,230.4Zm0,3a1,1,0,1,1,1-1A1,1,0,0,1,223.867,233.4Z" transform="translate(-221.867 -230.4)"/></g><g transform="translate(10 11.5)"><path d="M174.786,198.959l-3.313-2.583a.5.5,0,0,0-.615.789l3.313,2.583a.5.5,0,1,0,.615-.789Z" transform="translate(-170.664 -196.272)"/></g><g transform="translate(18.5 13)"><path d="M321.233,221.867a5.5,5.5,0,1,0,5.5,5.5A5.507,5.507,0,0,0,321.233,221.867Zm0,10a4.5,4.5,0,1,1,4.5-4.5A4.5,4.5,0,0,1,321.233,231.867Z" transform="translate(-315.733 -221.867)"/></g><g transform="translate(22 15)"><path d="M377.467,256a2,2,0,1,0,2,2A2,2,0,0,0,377.467,256Zm0,3a1,1,0,1,1,1-1A1,1,0,0,1,377.467,259Z" transform="translate(-375.467 -256)"/></g><g transform="translate(21 20)"><path d="M362.85,341.333h-2.9a1.531,1.531,0,0,0-1.549,1.507v1.318a.5.5,0,0,0,.249.433,5.472,5.472,0,0,0,5.5,0,.5.5,0,0,0,.25-.432v-1.318A1.531,1.531,0,0,0,362.85,341.333Zm.549,2.527a4.534,4.534,0,0,1-4,0v-1.02a.531.531,0,0,1,.549-.508h2.9a.531.531,0,0,1,.549.508v1.02Z" transform="translate(-358.4 -341.333)"/></g><g transform="translate(6.5 19)"><path d="M116.433,324.267a5.5,5.5,0,1,0,5.5,5.5A5.506,5.506,0,0,0,116.433,324.267Zm0,10a4.5,4.5,0,1,1,4.5-4.5A4.5,4.5,0,0,1,116.433,334.267Z" transform="translate(-110.933 -324.267)"/></g><g transform="translate(10 21)"><path d="M172.667,358.4a2,2,0,1,0,2,2A2,2,0,0,0,172.667,358.4Zm0,3a1,1,0,1,1,1-1A1,1,0,0,1,172.667,361.4Z" transform="translate(-170.667 -358.4)"/></g><g transform="translate(9 26)"><path d="M158.05,443.733h-2.9a1.531,1.531,0,0,0-1.549,1.508v1.318a.5.5,0,0,0,.249.433,5.472,5.472,0,0,0,5.5,0,.5.5,0,0,0,.249-.432v-1.318A1.531,1.531,0,0,0,158.05,443.733Zm.549,2.527a4.534,4.534,0,0,1-4,0v-1.019a.531.531,0,0,1,.549-.508h2.9a.531.531,0,0,1,.549.508v1.019Z" transform="translate(-153.6 -443.733)"/></g><g transform="translate(0 6.5)"><path d="M5.5,110.933a5.5,5.5,0,1,0,5.5,5.5A5.507,5.507,0,0,0,5.5,110.933Zm0,10a4.5,4.5,0,1,1,4.5-4.5A4.5,4.5,0,0,1,5.5,120.933Z" transform="translate(0 -110.933)"/></g><g transform="translate(3.5 8.5)"><path d="M61.734,145.067a2,2,0,1,0,2,2A2,2,0,0,0,61.734,145.067Zm0,3a1,1,0,1,1,1-1A1,1,0,0,1,61.734,148.067Z" transform="translate(-59.734 -145.067)"/></g><g transform="translate(2.5 13.5)"><path d="M47.117,230.4h-2.9a1.531,1.531,0,0,0-1.55,1.508v1.318a.5.5,0,0,0,.249.433,5.472,5.472,0,0,0,5.5,0,.5.5,0,0,0,.249-.432v-1.318A1.531,1.531,0,0,0,47.117,230.4Zm.549,2.528a4.534,4.534,0,0,1-4,0v-1.019a.531.531,0,0,1,.549-.508h2.9a.531.531,0,0,1,.549.508v1.019Z" transform="translate(-42.667 -230.4)"/></g><g transform="translate(12)"><path d="M210.3,0a5.5,5.5,0,1,0,5.5,5.5A5.506,5.506,0,0,0,210.3,0Zm0,10a4.5,4.5,0,1,1,4.5-4.5A4.5,4.5,0,0,1,210.3,10Z" transform="translate(-204.8)"/></g><g transform="translate(15.5 2)"><path d="M266.534,34.133a2,2,0,1,0,2,2A2,2,0,0,0,266.534,34.133Zm0,3a1,1,0,1,1,1-1A1,1,0,0,1,266.534,37.133Z" transform="translate(-264.534 -34.133)"/></g><g transform="translate(14.5 7)"><path d="M251.917,119.467h-2.9a1.531,1.531,0,0,0-1.549,1.507v1.318a.5.5,0,0,0,.249.433,5.472,5.472,0,0,0,5.5,0,.5.5,0,0,0,.249-.432v-1.318A1.531,1.531,0,0,0,251.917,119.467Zm.549,2.528a4.534,4.534,0,0,1-4,0v-1.019a.531.531,0,0,1,.549-.508h2.9a.531.531,0,0,1,.549.508v1.019Z" transform="translate(-247.467 -119.467)"/></g><g transform="translate(8.535 5)"><path d="M150.016,85.508a.5.5,0,0,0-.705-.054l-3.465,2.965a.5.5,0,1,0,.65.759l3.465-2.965A.5.5,0,0,0,150.016,85.508Z" transform="translate(-145.671 -85.333)"/></g><g transform="translate(20 9.001)"><path d="M345.233,157.81l-3-4a.5.5,0,0,0-.8.6l3,4a.5.5,0,0,0,.8-.6Z" transform="translate(-341.333 -153.61)"/></g><g transform="translate(16.103 19.954)"><path d="M278.526,340.74a.5.5,0,0,0-.7-.1l-2.793,2.095a.5.5,0,0,0,.6.8l2.793-2.094A.5.5,0,0,0,278.526,340.74Z" transform="translate(-274.833 -340.54)"/></g><g transform="translate(3 24)"><path d="M55.2,409.6H51.7a.5.5,0,1,0,0,1h3.5a.5.5,0,0,0,0-1Z" transform="translate(-51.2 -409.6)"/></g><g transform="translate(3.5)"><path d="M61.733,0a2,2,0,1,0,2,2A2,2,0,0,0,61.733,0Zm0,3a1,1,0,1,1,1-1A1,1,0,0,1,61.733,3Z" transform="translate(-59.733)"/></g><g transform="translate(5 3)"><path d="M85.834,51.2a.5.5,0,0,0-.5.5v3.5a.5.5,0,0,0,1,0V51.7A.5.5,0,0,0,85.834,51.2Z" transform="translate(-85.334 -51.2)"/></g></svg>