<svg xmlns="http://www.w3.org/2000/svg" width="30" height="30.349" viewBox="0 0 30 30.349"><g transform="translate(-3)"><path d="M32.994,6.544a.487.487,0,0,0-.026-.13c-.005-.016-.01-.032-.017-.048a.507.507,0,0,0-.1-.148L26.78.148a.5.5,0,0,0-.149-.1C26.616.04,26.6.036,26.586.03A.5.5,0,0,0,26.453,0c-.009,0-.018,0-.028,0H11.25A2.532,2.532,0,0,0,8.721,2.529V6.252a9.591,9.591,0,0,0,0,17.552v4.016a2.532,2.532,0,0,0,2.529,2.529H30.471A2.532,2.532,0,0,0,33,27.819V6.576C33,6.564,32.995,6.555,32.994,6.544Zm-1.72-.474H27.436a.506.506,0,0,1-.506-.506V1.727ZM4.022,15.028a8.587,8.587,0,0,1,8.6-8.6c.287,0,.573.014.854.041a8.575,8.575,0,0,1,7.638,7.27,8.68,8.68,0,0,1,.106,1.288,8.6,8.6,0,0,1-17.2,0Zm14.473,7.6c.069-.054.138-.107.205-.162a8.523,8.523,0,0,0,1.357-1.356c.055-.068.108-.137.162-.206s.128-.156.186-.237l4.312,4.317a1.506,1.506,0,0,1,0,2.14,1.541,1.541,0,0,1-2.142,0l-4.318-4.31C18.34,22.753,18.416,22.687,18.5,22.626Zm11.975,6.711H11.25a1.517,1.517,0,0,1-1.517-1.517V24.2c.031.01.064.017.1.026.081.025.163.044.245.067.189.051.38.1.572.139.095.02.189.038.285.055.193.034.387.061.582.083.087.01.173.022.261.03.28.024.562.04.847.04a9.548,9.548,0,0,0,4.764-1.269l4.472,4.468a2.529,2.529,0,1,0,3.574-3.572l-4.47-4.473a9.545,9.545,0,0,0,1.269-4.764q0-.481-.046-.953a9.608,9.608,0,0,0-9.564-8.657c-.285,0-.567.016-.847.04-.087.008-.174.02-.261.03q-.292.033-.581.083-.144.025-.287.055c-.19.04-.379.086-.566.138-.084.023-.168.043-.253.068-.031.01-.063.016-.095.026V2.529a1.517,1.517,0,0,1,1.517-1.517h14.67V5.564a1.517,1.517,0,0,0,1.517,1.517h4.552V27.819A1.517,1.517,0,0,1,30.471,29.337Z"/><path d="M153.627,48.506a.506.506,0,0,0-.506-.506H141.994a.506.506,0,1,0,0,1.012h11.128A.506.506,0,0,0,153.627,48.506Z" transform="translate(-129.732 -44.965)"/><path d="M324.064,192h-6.07a.506.506,0,0,0,0,1.012h6.07a.506.506,0,0,0,0-1.012Z" transform="translate(-294.604 -179.861)"/><path d="M324.064,240h-6.07a.506.506,0,0,0,0,1.012h6.07a.506.506,0,0,0,0-1.012Z" transform="translate(-294.604 -224.826)"/><path d="M317.075,288.506a.506.506,0,0,0-.506-.506h-6.576a.506.506,0,0,0,0,1.012h6.576A.506.506,0,0,0,317.075,288.506Z" transform="translate(-287.11 -269.791)"/><path d="M347.052,336.506a.506.506,0,0,0-.506-.506h-4.552a.506.506,0,0,0,0,1.012h4.552A.506.506,0,0,0,347.052,336.506Z" transform="translate(-317.087 -314.756)"/><path d="M258.546,96.506A.506.506,0,0,0,258.04,96h-4.046a.506.506,0,1,0,0,1.012h4.046A.506.506,0,0,0,258.546,96.506Z" transform="translate(-234.651 -89.93)"/><path d="M302.087,144.506a.506.506,0,0,0-.506-.506h-7.587a.506.506,0,0,0,0,1.012h7.587A.506.506,0,0,0,302.087,144.506Z" transform="translate(-272.122 -134.895)"/><path d="M117.994,185.012h3.541a.506.506,0,0,0,0-1.012h-3.541a.506.506,0,0,0,0,1.012Z" transform="translate(-107.249 -172.366)"/><path d="M94.087,232.506a.506.506,0,0,0-.506-.506H85.994a.506.506,0,0,0,0,1.012h7.587A.506.506,0,0,0,94.087,232.506Z" transform="translate(-77.273 -217.332)"/><path d="M121.534,280h-3.541a.506.506,0,0,0,0,1.012h3.541a.506.506,0,0,0,0-1.012Z" transform="translate(-107.249 -262.297)"/><path d="M46.34,131.972a7.417,7.417,0,0,0,2.951-2.862c.04-.07.083-.138.121-.208.02-.037.035-.074.054-.111.077-.148.152-.3.218-.447s.119-.295.173-.444c.016-.043.035-.085.051-.128a7.591,7.591,0,1,0-3.567,4.2Zm-6.753-.9a6.525,6.525,0,0,1-1.5-1.122,6.663,6.663,0,0,1-.825-1q-.179-.268-.33-.551a6.576,6.576,0,1,1,11.587.029v0a6.464,6.464,0,0,1-2.656,2.655,6.557,6.557,0,0,1-6.277-.01Z" transform="translate(-30.119 -110.273)"/><path d="M385.029,384a.506.506,0,0,0-.506.506v2.023a.506.506,0,0,1-.506.506h-2.023a.506.506,0,0,0,0,1.012h2.023a1.517,1.517,0,0,0,1.517-1.517v-2.023A.506.506,0,0,0,385.029,384Z" transform="translate(-354.558 -359.721)"/></g></svg>